# xmcd
#
# Track frame offsets:
#	150
#	21003
#	47965
#	65327
#	81475
#	108627
#	131302
#	162001
#	187066
#	211430
#	241803
#	259072
#	276944
#	308229
#	331620
#	344552
#
# Disc length: 4773 seconds
#
# Revision: 0
# Processed by: cddbd v1.4PL0 Copyright (c) Steve Scherf et al.
# Submitted via: audiograbber 1.80.04
#
DISCID=e912a310
DTITLE=Eric Clapton - One more car, One more rider (Live on tour 2001) Disk 2
DYEAR=2001
DGENRE=
TTITLE0=I Want A Little Girl
TTITLE1=Reptile
TTITLE2=Got you on my mind
TTITLE3=Key to the highway
TTITLE4=Badge
TTITLE5=Bell bottom blues
TTITLE6=Have you ever loved a woman
TTITLE7=Going down slow
TTITLE8=Over the rainbow
TTITLE9=Shess gone
TTITLE10=Mean old world
TTITLE11=County jail blues
TTITLE12=Meet me (Down at the bottom)
TTITLE13=To make somebody happy
TTITLE14=Give me strength
TTITLE15=Blow wind blow
EXTD=
EXTT0=
EXTT1=
EXTT2=
EXTT3=
EXTT4=
EXTT5=
EXTT6=
EXTT7=
EXTT8=
EXTT9=
EXTT10=
EXTT11=
EXTT12=
EXTT13=
EXTT14=
EXTT15=
PLAYORDER=
